# xmcd CD database file
#
# Track frame offsets:
#	150
#	12324
#	31474
#	54762
#	70605
#	87018
#	121114
#	136496
#	156395
#	179060
#	216178
#	239317
#
# Disc length: 3319 seconds
#
# Revision: 1
# Processed by: cddbd v1.4PL0 Copyright (c) Steve Scherf et al.
# Submitted via: CDex 1.40Release
#
DISCID=9e0cf50c
DTITLE=Trinity Western University - Awaken Our Hearts
DYEAR=1998
DGENRE=
TTITLE0=The Life of Worship
TTITLE1=Awaken Our Hearts
TTITLE2=Be Thou My Vision
TTITLE3=Let Us Come
TTITLE4=How Deep the Father's Love
TTITLE5=Lord Most High - Your Name is Holy
TTITLE6=Come Thou Fount of Every Blessing
TTITLE7=Waves of Grace
TTITLE8=With the Angels
TTITLE9=Better is One Day - Father I Long to Know you
TTITLE10=Holy and Anointed One
TTITLE11=Doxology (Great is He)
EXTD=YEAR: 1998
EXTT0=
EXTT1=
EXTT2=
EXTT3=
EXTT4=
EXTT5=
EXTT6=
EXTT7=
EXTT8=
EXTT9=
EXTT10=
EXTT11=
PLAYORDER=
